<svg id="visual" viewBox="0 0 900 600" width="900" height="600" xmlns="http://www.w3.org/2000/svg" xmlns:xlink="http://www.w3.org/1999/xlink" version="1.1"><rect x="0" y="0" width="900" height="600" fill="#eecda3"></rect><defs><linearGradient id="grad1_0" x1="33.3%" y1="100%" x2="100%" y2="0%"><stop offset="20%" stop-color="#ef629f" stop-opacity="1"></stop><stop offset="80%" stop-color="#ef629f" stop-opacity="1"></stop></linearGradient></defs><defs><linearGradient id="grad1_1" x1="33.3%" y1="100%" x2="100%" y2="0%"><stop offset="20%" stop-color="#ef629f" stop-opacity="1"></stop><stop offset="80%" stop-color="#f77093" stop-opacity="1"></stop></linearGradient></defs><defs><linearGradient id="grad1_2" x1="33.3%" y1="100%" x2="100%" y2="0%"><stop offset="20%" stop-color="#fb808b" stop-opacity="1"></stop><stop offset="80%" stop-color="#f77093" stop-opacity="1"></stop></linearGradient></defs><defs><linearGradient id="grad1_3" x1="33.3%" y1="100%" x2="100%" y2="0%"><stop offset="20%" stop-color="#fb808b" stop-opacity="1"></stop><stop offset="80%" stop-color="#fb9086" stop-opacity="1"></stop></linearGradient></defs><defs><linearGradient id="grad1_4" x1="33.3%" y1="100%" x2="100%" y2="0%"><stop offset="20%" stop-color="#f9a187" stop-opacity="1"></stop><stop offset="80%" stop-color="#fb9086" stop-opacity="1"></stop></linearGradient></defs><defs><linearGradient id="grad1_5" x1="33.3%" y1="100%" x2="100%" y2="0%"><stop offset="20%" stop-color="#f9a187" stop-opacity="1"></stop><stop offset="80%" stop-color="#f6b08c" stop-opacity="1"></stop></linearGradient></defs><defs><linearGradient id="grad1_6" x1="33.3%" y1="100%" x2="100%" y2="0%"><stop offset="20%" stop-color="#f2bf95" stop-opacity="1"></stop><stop offset="80%" stop-color="#f6b08c" stop-opacity="1"></stop></linearGradient></defs><defs><linearGradient id="grad1_7" x1="33.3%" y1="100%" x2="100%" y2="0%"><stop offset="20%" stop-color="#f2bf95" stop-opacity="1"></stop><stop offset="80%" stop-color="#eecda3" stop-opacity="1"></stop></linearGradient></defs><defs><linearGradient id="grad2_0" x1="0%" y1="100%" x2="66.7%" y2="0%"><stop offset="20%" stop-color="#ef629f" stop-opacity="1"></stop><stop offset="80%" stop-color="#ef629f" stop-opacity="1"></stop></linearGradient></defs><defs><linearGradient id="grad2_1" x1="0%" y1="100%" x2="66.7%" y2="0%"><stop offset="20%" stop-color="#f77093" stop-opacity="1"></stop><stop offset="80%" stop-color="#ef629f" stop-opacity="1"></stop></linearGradient></defs><defs><linearGradient id="grad2_2" x1="0%" y1="100%" x2="66.7%" y2="0%"><stop offset="20%" stop-color="#f77093" stop-opacity="1"></stop><stop offset="80%" stop-color="#fb808b" stop-opacity="1"></stop></linearGradient></defs><defs><linearGradient id="grad2_3" x1="0%" y1="100%" x2="66.7%" y2="0%"><stop offset="20%" stop-color="#fb9086" stop-opacity="1"></stop><stop offset="80%" stop-color="#fb808b" stop-opacity="1"></stop></linearGradient></defs><defs><linearGradient id="grad2_4" x1="0%" y1="100%" x2="66.7%" y2="0%"><stop offset="20%" stop-color="#fb9086" stop-opacity="1"></stop><stop offset="80%" stop-color="#f9a187" stop-opacity="1"></stop></linearGradient></defs><defs><linearGradient id="grad2_5" x1="0%" y1="100%" x2="66.7%" y2="0%"><stop offset="20%" stop-color="#f6b08c" stop-opacity="1"></stop><stop offset="80%" stop-color="#f9a187" stop-opacity="1"></stop></linearGradient></defs><defs><linearGradient id="grad2_6" x1="0%" y1="100%" x2="66.7%" y2="0%"><stop offset="20%" stop-color="#f6b08c" stop-opacity="1"></stop><stop offset="80%" stop-color="#f2bf95" stop-opacity="1"></stop></linearGradient></defs><defs><linearGradient id="grad2_7" x1="0%" y1="100%" x2="66.7%" y2="0%"><stop offset="20%" stop-color="#eecda3" stop-opacity="1"></stop><stop offset="80%" stop-color="#f2bf95" stop-opacity="1"></stop></linearGradient></defs><g transform="translate(900, 600)"><path d="M-378.6 0C-371.7 -27.5 -364.8 -55 -356.8 -81.4C-348.8 -107.9 -339.6 -133.4 -326.2 -157.1C-312.7 -180.7 -294.8 -202.6 -274.4 -218.8C-254 -235.1 -231 -245.9 -213.9 -268.2C-196.8 -290.5 -185.6 -324.4 -164.3 -341.1C-142.9 -357.8 -111.4 -357.3 -82.3 -360.7C-53.3 -364.1 -26.6 -371.3 0 -378.6L0 0Z" fill="#f0c69c"></path><path d="M-331.3 0C-325.2 -24 -319.2 -48.1 -312.2 -71.3C-305.2 -94.4 -297.2 -116.7 -285.4 -137.4C-273.6 -158.1 -258 -177.2 -240.1 -191.5C-222.2 -205.7 -202.1 -215.1 -187.1 -234.6C-172.2 -254.2 -162.4 -283.8 -143.7 -298.5C-125.1 -313.1 -97.5 -312.7 -72 -315.6C-46.6 -318.6 -23.3 -324.9 0 -331.3L0 0Z" fill="#f4b890"></path><path d="M-283.9 0C-278.8 -20.6 -273.6 -41.2 -267.6 -61.1C-261.6 -80.9 -254.7 -100.1 -244.6 -117.8C-234.5 -135.5 -221.1 -151.9 -205.8 -164.1C-190.5 -176.3 -173.2 -184.4 -160.4 -201.1C-147.6 -217.9 -139.2 -243.3 -123.2 -255.8C-107.2 -268.4 -83.6 -268 -61.7 -270.5C-39.9 -273.1 -20 -278.5 0 -283.9L0 0Z" fill="#f8a989"></path><path d="M-236.6 0C-232.3 -17.2 -228 -34.4 -223 -50.9C-218 -67.5 -212.3 -83.4 -203.8 -98.2C-195.4 -113 -184.3 -126.6 -171.5 -136.8C-158.7 -147 -144.3 -153.7 -133.7 -167.6C-123 -181.6 -116 -202.7 -102.7 -213.2C-89.3 -223.6 -69.6 -223.3 -51.5 -225.5C-33.3 -227.6 -16.6 -232.1 0 -236.6L0 0Z" fill="#fb9986"></path><path d="M-189.3 0C-185.9 -13.7 -182.4 -27.5 -178.4 -40.7C-174.4 -54 -169.8 -66.7 -163.1 -78.5C-156.3 -90.4 -147.4 -101.3 -137.2 -109.4C-127 -117.6 -115.5 -122.9 -106.9 -134.1C-98.4 -145.2 -92.8 -162.2 -82.1 -170.5C-71.5 -178.9 -55.7 -178.7 -41.2 -180.4C-26.6 -182.1 -13.3 -185.7 0 -189.3L0 0Z" fill="#fb8888"></path><path d="M-142 0C-139.4 -10.3 -136.8 -20.6 -133.8 -30.5C-130.8 -40.5 -127.4 -50 -122.3 -58.9C-117.2 -67.8 -110.6 -76 -102.9 -82.1C-95.2 -88.2 -86.6 -92.2 -80.2 -100.6C-73.8 -108.9 -69.6 -121.6 -61.6 -127.9C-53.6 -134.2 -41.8 -134 -30.9 -135.3C-20 -136.5 -10 -139.3 0 -142L0 0Z" fill="#f9788e"></path><path d="M-94.6 0C-92.9 -6.9 -91.2 -13.7 -89.2 -20.4C-87.2 -27 -84.9 -33.4 -81.5 -39.3C-78.2 -45.2 -73.7 -50.6 -68.6 -54.7C-63.5 -58.8 -57.7 -61.5 -53.5 -67C-49.2 -72.6 -46.4 -81.1 -41.1 -85.3C-35.7 -89.5 -27.9 -89.3 -20.6 -90.2C-13.3 -91 -6.7 -92.8 0 -94.6L0 0Z" fill="#f46999"></path><path d="M-47.3 0C-46.5 -3.4 -45.6 -6.9 -44.6 -10.2C-43.6 -13.5 -42.5 -16.7 -40.8 -19.6C-39.1 -22.6 -36.9 -25.3 -34.3 -27.4C-31.7 -29.4 -28.9 -30.7 -26.7 -33.5C-24.6 -36.3 -23.2 -40.5 -20.5 -42.6C-17.9 -44.7 -13.9 -44.7 -10.3 -45.1C-6.7 -45.5 -3.3 -46.4 0 -47.3L0 0Z" fill="#ef629f"></path></g><g transform="translate(0, 0)"><path d="M378.6 0C360.5 24.4 342.3 48.8 339.3 77.4C336.2 106.1 348.3 139.1 341.1 164.3C333.9 189.4 307.6 206.8 288.5 230.1C269.4 253.3 257.7 282.4 233.8 293.2C209.9 303.9 174 296.3 148 307.2C121.9 318.2 105.8 347.7 82.8 362.7C59.8 377.7 29.9 378.1 0 378.6L0 0Z" fill="#f0c69c"></path><path d="M331.3 0C315.4 21.3 299.5 42.7 296.9 67.8C294.2 92.8 304.7 121.7 298.5 143.7C292.2 165.8 269.1 181 252.4 201.3C235.8 221.7 225.5 247.1 204.6 256.5C183.7 265.9 152.2 259.3 129.5 268.8C106.7 278.4 92.6 304.2 72.4 317.3C52.3 330.5 26.1 330.9 0 331.3L0 0Z" fill="#f4b890"></path><path d="M283.9 0C270.3 18.3 256.7 36.6 254.5 58.1C252.2 79.6 261.2 104.3 255.8 123.2C250.4 142.1 230.7 155.1 216.4 172.6C202.1 190 193.3 211.8 175.4 219.9C157.5 227.9 130.5 222.2 111 230.4C91.4 238.6 79.3 260.8 62.1 272C44.8 283.2 22.4 283.6 0 283.9L0 0Z" fill="#f8a989"></path><path d="M236.6 0C225.3 15.2 214 30.5 212 48.4C210.1 66.3 217.7 86.9 213.2 102.7C208.7 118.4 192.2 129.3 180.3 143.8C168.4 158.3 161 176.5 146.1 183.2C131.2 190 108.7 185.2 92.5 192C76.2 198.9 66.1 217.3 51.7 226.7C37.4 236 18.7 236.3 0 236.6L0 0Z" fill="#fb9986"></path><path d="M189.3 0C180.2 12.2 171.2 24.4 169.6 38.7C168.1 53.1 174.1 69.5 170.5 82.1C167 94.7 153.8 103.4 144.2 115C134.7 126.7 128.8 141.2 116.9 146.6C105 152 87 148.1 74 153.6C61 159.1 52.9 173.8 41.4 181.3C29.9 188.8 14.9 189.1 0 189.3L0 0Z" fill="#fb8888"></path><path d="M142 0C135.2 9.1 128.4 18.3 127.2 29C126.1 39.8 130.6 52.2 127.9 61.6C125.2 71 115.3 77.6 108.2 86.3C101 95 96.6 105.9 87.7 109.9C78.7 114 65.2 111.1 55.5 115.2C45.7 119.3 39.7 130.4 31 136C22.4 141.6 11.2 141.8 0 142L0 0Z" fill="#f9788e"></path><path d="M94.6 0C90.1 6.1 85.6 12.2 84.8 19.4C84.1 26.5 87.1 34.8 85.3 41.1C83.5 47.4 76.9 51.7 72.1 57.5C67.4 63.3 64.4 70.6 58.5 73.3C52.5 76 43.5 74.1 37 76.8C30.5 79.5 26.4 86.9 20.7 90.7C14.9 94.4 7.5 94.5 0 94.6L0 0Z" fill="#f46999"></path><path d="M47.3 0C45.1 3 42.8 6.1 42.4 9.7C42 13.3 43.5 17.4 42.6 20.5C41.7 23.7 38.4 25.9 36.1 28.8C33.7 31.7 32.2 35.3 29.2 36.6C26.2 38 21.7 37 18.5 38.4C15.2 39.8 13.2 43.5 10.3 45.3C7.5 47.2 3.7 47.3 0 47.3L0 0Z" fill="#ef629f"></path></g></svg>