<svg id="visual" viewBox="0 0 960 540" width="960" height="540" xmlns="http://www.w3.org/2000/svg" xmlns:xlink="http://www.w3.org/1999/xlink" version="1.1"><rect x="0" y="0" width="960" height="540" fill="#001220"></rect><defs><linearGradient id="grad1_0" x1="43.8%" y1="0%" x2="100%" y2="100%"><stop offset="14.444444444444446%" stop-color="#fbae3c" stop-opacity="1"></stop><stop offset="85.55555555555554%" stop-color="#fbae3c" stop-opacity="1"></stop></linearGradient></defs><defs><linearGradient id="grad1_1" x1="43.8%" y1="0%" x2="100%" y2="100%"><stop offset="14.444444444444446%" stop-color="#fbae3c" stop-opacity="1"></stop><stop offset="85.55555555555554%" stop-color="#f48350" stop-opacity="1"></stop></linearGradient></defs><defs><linearGradient id="grad1_2" x1="43.8%" y1="0%" x2="100%" y2="100%"><stop offset="14.444444444444446%" stop-color="#d96162" stop-opacity="1"></stop><stop offset="85.55555555555554%" stop-color="#f48350" stop-opacity="1"></stop></linearGradient></defs><defs><linearGradient id="grad1_3" x1="43.8%" y1="0%" x2="100%" y2="100%"><stop offset="14.444444444444446%" stop-color="#d96162" stop-opacity="1"></stop><stop offset="85.55555555555554%" stop-color="#af4b6d" stop-opacity="1"></stop></linearGradient></defs><defs><linearGradient id="grad1_4" x1="43.8%" y1="0%" x2="100%" y2="100%"><stop offset="14.444444444444446%" stop-color="#7c3e6b" stop-opacity="1"></stop><stop offset="85.55555555555554%" stop-color="#af4b6d" stop-opacity="1"></stop></linearGradient></defs><defs><linearGradient id="grad1_5" x1="43.8%" y1="0%" x2="100%" y2="100%"><stop offset="14.444444444444446%" stop-color="#7c3e6b" stop-opacity="1"></stop><stop offset="85.55555555555554%" stop-color="#49335c" stop-opacity="1"></stop></linearGradient></defs><defs><linearGradient id="grad1_6" x1="43.8%" y1="0%" x2="100%" y2="100%"><stop offset="14.444444444444446%" stop-color="#1d2540" stop-opacity="1"></stop><stop offset="85.55555555555554%" stop-color="#49335c" stop-opacity="1"></stop></linearGradient></defs><defs><linearGradient id="grad1_7" x1="43.8%" y1="0%" x2="100%" y2="100%"><stop offset="14.444444444444446%" stop-color="#1d2540" stop-opacity="1"></stop><stop offset="85.55555555555554%" stop-color="#001220" stop-opacity="1"></stop></linearGradient></defs><defs><linearGradient id="grad2_0" x1="0%" y1="0%" x2="56.3%" y2="100%"><stop offset="14.444444444444446%" stop-color="#fbae3c" stop-opacity="1"></stop><stop offset="85.55555555555554%" stop-color="#fbae3c" stop-opacity="1"></stop></linearGradient></defs><defs><linearGradient id="grad2_1" x1="0%" y1="0%" x2="56.3%" y2="100%"><stop offset="14.444444444444446%" stop-color="#f48350" stop-opacity="1"></stop><stop offset="85.55555555555554%" stop-color="#fbae3c" stop-opacity="1"></stop></linearGradient></defs><defs><linearGradient id="grad2_2" x1="0%" y1="0%" x2="56.3%" y2="100%"><stop offset="14.444444444444446%" stop-color="#f48350" stop-opacity="1"></stop><stop offset="85.55555555555554%" stop-color="#d96162" stop-opacity="1"></stop></linearGradient></defs><defs><linearGradient id="grad2_3" x1="0%" y1="0%" x2="56.3%" y2="100%"><stop offset="14.444444444444446%" stop-color="#af4b6d" stop-opacity="1"></stop><stop offset="85.55555555555554%" stop-color="#d96162" stop-opacity="1"></stop></linearGradient></defs><defs><linearGradient id="grad2_4" x1="0%" y1="0%" x2="56.3%" y2="100%"><stop offset="14.444444444444446%" stop-color="#af4b6d" stop-opacity="1"></stop><stop offset="85.55555555555554%" stop-color="#7c3e6b" stop-opacity="1"></stop></linearGradient></defs><defs><linearGradient id="grad2_5" x1="0%" y1="0%" x2="56.3%" y2="100%"><stop offset="14.444444444444446%" stop-color="#49335c" stop-opacity="1"></stop><stop offset="85.55555555555554%" stop-color="#7c3e6b" stop-opacity="1"></stop></linearGradient></defs><defs><linearGradient id="grad2_6" x1="0%" y1="0%" x2="56.3%" y2="100%"><stop offset="14.444444444444446%" stop-color="#49335c" stop-opacity="1"></stop><stop offset="85.55555555555554%" stop-color="#1d2540" stop-opacity="1"></stop></linearGradient></defs><defs><linearGradient id="grad2_7" x1="0%" y1="0%" x2="56.3%" y2="100%"><stop offset="14.444444444444446%" stop-color="#001220" stop-opacity="1"></stop><stop offset="85.55555555555554%" stop-color="#1d2540" stop-opacity="1"></stop></linearGradient></defs><g transform="translate(960, 0)"><path d="M0 351C-22.2 331.8 -44.5 312.7 -70.8 310C-97 307.4 -127.4 321.2 -152.3 316.2C-177.2 311.3 -196.7 287.5 -210.7 264.3C-224.8 241 -233.5 218.1 -251 200.1C-268.5 182.1 -294.8 169 -309 148.8C-323.3 128.6 -325.5 101.4 -330.5 75.4C-335.5 49.5 -343.2 24.7 -351 0L0 0Z" fill="#0c1c30"></path><path d="M0 307.1C-19.5 290.4 -38.9 273.6 -61.9 271.3C-84.9 268.9 -111.5 281 -133.3 276.7C-155 272.4 -172.1 251.6 -184.4 231.2C-196.7 210.8 -204.3 190.9 -219.6 175.1C-234.9 159.4 -257.9 147.9 -270.4 130.2C-282.9 112.6 -284.8 88.7 -289.2 66C-293.6 43.3 -300.3 21.6 -307.1 0L0 0Z" fill="#312c4f"></path><path d="M0 263.3C-16.7 248.9 -33.4 234.5 -53.1 232.5C-72.8 230.5 -95.5 240.9 -114.2 237.2C-132.9 233.5 -147.5 215.7 -158.1 198.2C-168.6 180.7 -175.1 163.6 -188.2 150.1C-201.3 136.6 -221.1 126.8 -231.8 111.6C-242.5 96.5 -244.1 76.1 -247.9 56.6C-251.6 37.1 -257.4 18.5 -263.2 0L0 0Z" fill="#623965"></path><path d="M0 219.4C-13.9 207.4 -27.8 195.4 -44.2 193.8C-60.7 192.1 -79.6 200.7 -95.2 197.7C-110.7 194.6 -122.9 179.7 -131.7 165.2C-140.5 150.6 -145.9 136.3 -156.9 125.1C-167.8 113.8 -184.2 105.6 -193.1 93C-202.1 80.4 -203.4 63.4 -206.6 47.1C-209.7 30.9 -214.5 15.5 -219.4 0L0 0Z" fill="#96446e"></path><path d="M0 175.5C-11.1 165.9 -22.2 156.3 -35.4 155C-48.5 153.7 -63.7 160.6 -76.1 158.1C-88.6 155.6 -98.3 143.8 -105.4 132.1C-112.4 120.5 -116.7 109.1 -125.5 100.1C-134.2 91.1 -147.4 84.5 -154.5 74.4C-161.6 64.3 -162.8 50.7 -165.3 37.7C-167.7 24.7 -171.6 12.4 -175.5 0L0 0Z" fill="#c55469"></path><path d="M0 131.6C-8.3 124.4 -16.7 117.3 -26.5 116.3C-36.4 115.3 -47.8 120.4 -57.1 118.6C-66.4 116.7 -73.8 107.8 -79 99.1C-84.3 90.4 -87.6 81.8 -94.1 75.1C-100.7 68.3 -110.5 63.4 -115.9 55.8C-121.2 48.2 -122.1 38 -123.9 28.3C-125.8 18.5 -128.7 9.3 -131.6 0L0 0Z" fill="#e9705a"></path><path d="M0 87.8C-5.6 83 -11.1 78.2 -17.7 77.5C-24.3 76.8 -31.8 80.3 -38.1 79.1C-44.3 77.8 -49.2 71.9 -52.7 66.1C-56.2 60.2 -58.4 54.5 -62.7 50C-67.1 45.5 -73.7 42.3 -77.3 37.2C-80.8 32.2 -81.4 25.4 -82.6 18.9C-83.9 12.4 -85.8 6.2 -87.7 0L0 0Z" fill="#fa9845"></path><path d="M0 43.9C-2.8 41.5 -5.6 39.1 -8.8 38.8C-12.1 38.4 -15.9 40.1 -19 39.5C-22.1 38.9 -24.6 35.9 -26.3 33C-28.1 30.1 -29.2 27.3 -31.4 25C-33.6 22.8 -36.8 21.1 -38.6 18.6C-40.4 16.1 -40.7 12.7 -41.3 9.4C-41.9 6.2 -42.9 3.1 -43.9 0L0 0Z" fill="#fbae3c"></path></g><g transform="translate(0, 540)"><path d="M0 -351C25 -342.3 50 -333.7 74.5 -326.6C99.1 -319.5 123.2 -314.1 147.1 -305.4C171 -296.8 194.8 -285 214.5 -269C234.2 -252.9 249.7 -232.7 267.4 -213.2C285 -193.8 304.8 -175.1 316.2 -152.3C327.7 -129.5 331 -102.6 335.4 -76.5C339.8 -50.5 345.4 -25.2 351 0L0 0Z" fill="#0c1c30"></path><path d="M0 -307.1C21.9 -299.5 43.8 -292 65.2 -285.8C86.7 -279.6 107.8 -274.8 128.7 -267.2C149.6 -259.7 170.5 -249.4 187.7 -235.3C204.9 -221.3 218.5 -203.6 234 -186.6C249.4 -169.6 266.7 -153.2 276.7 -133.3C286.8 -113.3 289.6 -89.8 293.5 -67C297.3 -44.2 302.2 -22.1 307.1 0L0 0Z" fill="#312c4f"></path><path d="M0 -263.2C18.8 -256.8 37.5 -250.3 55.9 -245C74.3 -239.7 92.4 -235.6 110.3 -229.1C128.3 -222.6 146.1 -213.7 160.9 -201.7C175.6 -189.7 187.3 -174.5 200.5 -159.9C213.8 -145.3 228.6 -131.3 237.2 -114.2C245.8 -97.1 248.2 -77 251.5 -57.4C254.8 -37.9 259 -18.9 263.3 0L0 0Z" fill="#623965"></path><path d="M0 -219.4C15.6 -214 31.3 -208.5 46.6 -204.1C61.9 -199.7 77 -196.3 91.9 -190.9C106.9 -185.5 121.8 -178.1 134.1 -168.1C146.4 -158.1 156.1 -145.4 167.1 -133.3C178.1 -121.1 190.5 -109.4 197.7 -95.2C204.8 -80.9 206.8 -64.1 209.6 -47.8C212.4 -31.6 215.9 -15.8 219.4 0L0 0Z" fill="#96446e"></path><path d="M0 -175.5C12.5 -171.2 25 -166.8 37.3 -163.3C49.5 -159.8 61.6 -157 73.5 -152.7C85.5 -148.4 97.4 -142.5 107.2 -134.5C117.1 -126.5 124.9 -116.3 133.7 -106.6C142.5 -96.9 152.4 -87.5 158.1 -76.1C163.9 -64.8 165.5 -51.3 167.7 -38.3C169.9 -25.2 172.7 -12.6 175.5 0L0 0Z" fill="#c55469"></path><path d="M0 -131.6C9.4 -128.4 18.8 -125.1 28 -122.5C37.2 -119.8 46.2 -117.8 55.2 -114.5C64.1 -111.3 73.1 -106.9 80.4 -100.9C87.8 -94.8 93.7 -87.3 100.3 -80C106.9 -72.7 114.3 -65.7 118.6 -57.1C122.9 -48.6 124.1 -38.5 125.8 -28.7C127.4 -18.9 129.5 -9.5 131.6 0L0 0Z" fill="#e9705a"></path><path d="M0 -87.7C6.3 -85.6 12.5 -83.4 18.6 -81.7C24.8 -79.9 30.8 -78.5 36.8 -76.4C42.8 -74.2 48.7 -71.2 53.6 -67.2C58.5 -63.2 62.4 -58.2 66.8 -53.3C71.3 -48.4 76.2 -43.8 79.1 -38.1C81.9 -32.4 82.7 -25.7 83.8 -19.1C84.9 -12.6 86.3 -6.3 87.8 0L0 0Z" fill="#fa9845"></path><path d="M0 -43.9C3.1 -42.8 6.3 -41.7 9.3 -40.8C12.4 -39.9 15.4 -39.3 18.4 -38.2C21.4 -37.1 24.4 -35.6 26.8 -33.6C29.3 -31.6 31.2 -29.1 33.4 -26.7C35.6 -24.2 38.1 -21.9 39.5 -19C41 -16.2 41.4 -12.8 41.9 -9.6C42.5 -6.3 43.2 -3.2 43.9 0L0 0Z" fill="#fbae3c"></path></g></svg>