<?xml version="1.0" encoding="utf-8"?>
<svg id="master-artboard" viewBox="0 0 1440.5845947265625 588.2359619140625" version="1.1" xmlns="http://www.w3.org/2000/svg" x="0px" y="0px" style="enable-background:new 0 0 1400 980;" width="1440.5845947265625px" height="588.2359619140625px"><defs><clipPath clipPathUnits="userSpaceOnUse" id="clipEmfPath1">
      <path d="  M 0,666.63506   L 0,666.63506   L 0,0   L 999.99259,0   L 999.99259,86.159362   C 992.79265,86.959356 985.7527,89.199339 979.51274,92.879312   C 968.15283,99.599262 954.39293,109.35919 951.03296,122.0791   C 943.19301,117.19913 933.91308,114.63915 924.63315,114.63915   C 917.9132,114.63915 911.19325,115.99914 905.0333,118.63912   C 890.4734,125.03907 875.19352,138.79897 872.23354,154.47886   C 865.51359,150.87888 857.67365,149.19889 849.59371,149.19889   C 832.31383,149.19889 814.23397,156.87884 804.95404,170.23874   C 801.51406,167.27876 795.9941,165.51877 790.87414,165.51877   C 787.67417,165.51877 784.63419,166.15877 782.31421,167.75876   C 771.91428,158.15883 757.75439,152.87887 743.67449,152.87887   C 738.07453,152.87887 732.39457,153.75886 727.03461,155.43885   C 708.23475,161.5188 693.59486,178.47868 689.67489,197.91853   C 689.67489,197.91853 689.67489,197.91853 689.59489,197.91853   C 685.75492,194.79856 681.43495,193.35857 677.11498,193.35857   C 668.95504,193.35857 660.79511,198.39853 655.99514,206.39847   C 652.31517,204.39849 648.0752,203.51849 643.67523,203.51849   C 636.31529,203.51849 628.71534,206.23847 623.59538,211.19844   C 614.31545,200.15852 599.91556,193.75856 585.43566,193.75856   C 581.83569,193.75856 578.23572,194.15856 574.71574,194.95856   C 557.19587,199.11853 541.27599,215.3584 537.11602,232.95827   C 535.03604,231.11829 532.23606,230.31829 529.43608,230.31829   C 523.43612,230.31829 517.03617,233.83827 515.27618,239.27823   C 508.95623,234.47826 501.19629,232.23828 493.35635,232.23828   C 484.55641,232.23828 475.67648,235.11826 468.87653,240.63822   C 429.19682,226.55832 392.95709,200.39852 350.7174,199.99852   C 350.3974,199.99852 350.07741,199.99852 349.83741,199.99852   C 337.2775,199.99852 324.87759,202.3185 312.55768,204.55848   C 305.51774,205.83848 298.55779,207.11847 291.59784,207.99846   C 287.19787,199.99852 280.15792,193.43857 271.75799,189.75859   C 265.03804,186.87862 256.0781,184.63863 247.75816,184.63863   C 242.9582,184.63863 238.31823,185.43863 234.47826,187.19861   C 235.11826,181.91865 232.71828,176.39869 228.39831,173.27872   C 225.75833,171.35873 222.55835,170.31874 219.35838,170.31874   C 217.27839,170.31874 215.19841,170.79873 213.27842,171.59873   C 208.15846,157.59883 195.59855,146.55891 181.11866,143.19894   C 177.51869,142.39895 173.83871,141.99895 170.07874,141.99895   C 158.63882,141.99895 146.95891,145.83892 138.87897,153.59886   C 137.59898,148.3989 130.39903,143.59894 124.63908,143.59894   C 123.75908,143.59894 122.95909,143.67894 122.1591,143.91893   C 116.39914,133.75901 106.07921,126.31906 94.639299,123.91908   C 91.039326,123.19909 87.119355,122.71909 83.119384,122.71909   C 74.719447,122.71909 66.15951,124.71908 59.759557,129.43904   C 53.759602,123.43909 45.679662,118.95912 37.519722,118.95912   C 35.199739,118.95912 32.959756,119.27912 30.719772,119.99911   C 25.199813,106.79921 13.5199,96.639284 0,91.999319   L 0,257.27809   L 0,257.27809   L 0,666.63506   z" id="path2"/>
    </clipPath><clipPath clipPathUnits="userSpaceOnUse" id="clipEmfPath2">
      <path d="  M 932.0731,268.39801   C 929.75311,268.39801 927.43313,268.23801 925.11315,267.83802   C 878.31349,260.23807 831.99384,218.71838 788.79416,200.15852   C 771.19429,192.63857 754.71441,189.4386 738.63453,189.4386   C 722.31465,189.4386 706.23477,192.71857 689.67489,197.91853   C 693.59486,178.47868 708.23475,161.5188 727.03461,155.43885   C 732.39457,153.75886 738.07453,152.87887 743.67449,152.87887   C 757.75439,152.87887 771.91428,158.15883 782.31421,167.75876   C 784.63419,166.15877 787.67417,165.51877 790.87414,165.51877   C 795.9941,165.51877 801.51406,167.27876 804.95404,170.23874   C 814.23397,156.87884 832.31383,149.19889 849.59371,149.19889   C 857.67365,149.19889 865.51359,150.87888 872.23354,154.47886   C 875.19352,138.79897 890.4734,125.03907 905.0333,118.63912   C 911.19325,115.99914 917.9132,114.63915 924.63315,114.63915   C 933.91308,114.63915 943.19301,117.19913 951.03296,122.0791   C 954.39293,109.35919 968.15283,99.599262 979.51274,92.879312   C 985.7527,89.199339 992.79265,86.959356 999.99259,86.159362   L 999.99259,250.63814   C 977.83276,254.71811 953.35294,268.39801 932.0731,268.39801   M 519.27615,249.83815   C 510.95622,249.83815 502.55628,249.11815 494.15634,247.59817   C 485.5964,245.99818 477.19647,243.5982 468.87653,240.63822   C 475.67648,235.11826 484.55641,232.23828 493.35635,232.23828   C 501.19629,232.23828 508.95623,234.47826 515.27618,239.27823   C 517.03617,233.83827 523.43612,230.31829 529.43608,230.31829   C 532.23606,230.31829 535.03604,231.11829 537.11602,232.95827   C 541.27599,215.3584 557.19587,199.11853 574.71574,194.95856   C 578.23572,194.15856 581.83569,193.75856 585.43566,193.75856   C 599.91556,193.75856 614.31545,200.15852 623.59538,211.19844   C 628.71534,206.23847 636.31529,203.51849 643.67523,203.51849   C 648.0752,203.51849 652.31517,204.39849 655.99514,206.39847   C 660.79511,198.39853 668.95504,193.35857 677.11498,193.35857   C 681.43495,193.35857 685.75492,194.79856 689.59489,197.91853   C 676.79499,201.9185 663.67508,207.11847 649.75519,212.87842   C 607.9155,230.1583 563.91582,249.83815 519.27615,249.83815 " id="path5"/>
    </clipPath><clipPath clipPathUnits="userSpaceOnUse" id="clipEmfPath3">
      <path d="  M 0,257.27809   L 0,257.27809   L 0,91.999319   C 13.5199,96.639284 25.199813,106.79921 30.719772,119.99911   C 32.959756,119.27912 35.199739,118.95912 37.519722,118.95912   C 45.679662,118.95912 53.759602,123.43909 59.759557,129.43904   C 66.15951,124.71908 74.719447,122.71909 83.119384,122.71909   C 87.119355,122.71909 91.039326,123.19909 94.639299,123.91908   C 106.07921,126.31906 116.39914,133.75901 122.1591,143.91893   C 122.95909,143.67894 123.75908,143.59894 124.63908,143.59894   C 130.39903,143.59894 137.59898,148.3989 138.87897,153.59886   C 146.95891,145.83892 158.63882,141.99895 170.07874,141.99895   C 173.83871,141.99895 177.51869,142.39895 181.11866,143.19894   C 195.59855,146.55891 208.15846,157.59883 213.27842,171.59873   C 215.19841,170.79873 217.27839,170.31874 219.35838,170.31874   C 222.55835,170.31874 225.75833,171.35873 228.39831,173.27872   C 232.71828,176.39869 235.11826,181.91865 234.47826,187.19861   C 238.31823,185.43863 242.9582,184.63863 247.75816,184.63863   C 256.0781,184.63863 265.03804,186.87862 271.75799,189.75859   C 280.15792,193.43857 287.19787,199.99852 291.59784,207.99846   C 286.23788,208.63845 280.79792,209.11845 275.43796,209.11845   C 271.51799,209.11845 267.59802,208.87845 263.67805,208.31846   C 214.31841,201.75851 169.51874,168.87875 120.23911,168.87875   C 111.51917,168.87875 102.55924,169.91874 93.519307,172.31872   C 58.399567,181.59865 29.439782,202.8785 0,222.95835   L 0,257.27809 " id="path8"/>
    </clipPath><clipPath clipPathUnits="userSpaceOnUse" id="clipEmfPath4">
      <path d="  M 0,666.63506   L 0,666.63506   L 0,222.95835   C 29.439782,202.8785 58.399567,181.59865 93.519307,172.31872   C 102.55924,169.91874 111.51917,168.87875 120.23911,168.87875   C 169.51874,168.87875 214.31841,201.75851 263.67805,208.31846   C 267.59802,208.87845 271.51799,209.11845 275.43796,209.11845   C 280.79792,209.11845 286.23788,208.63845 291.59784,207.99846   C 298.55779,207.11847 305.51774,205.83848 312.55768,204.55848   C 324.87759,202.3185 337.2775,199.99852 349.83741,199.99852   C 350.07741,199.99852 350.3974,199.99852 350.7174,199.99852   C 392.95709,200.39852 429.19682,226.55832 468.87653,240.63822   C 477.19647,243.5982 485.5964,245.99818 494.15634,247.59817   C 502.55628,249.11815 510.95622,249.83815 519.27615,249.83815   C 563.91582,249.83815 607.9155,230.1583 649.75519,212.87842   C 663.67508,207.11847 676.79499,201.9185 689.59489,197.91853   C 689.67489,197.91853 689.67489,197.91853 689.67489,197.91853   C 706.23477,192.71857 722.31465,189.4386 738.63453,189.4386   C 754.71441,189.4386 771.19429,192.63857 788.79416,200.15852   C 831.99384,218.71838 878.31349,260.23807 925.11315,267.83802   C 927.43313,268.23801 929.75311,268.39801 932.0731,268.39801   C 953.35294,268.39801 977.83276,254.71811 999.99259,250.63814   L 999.99259,250.63814   L 999.99259,267.67802   C 998.7126,267.59802 997.43261,267.51802 996.15262,267.51802   C 989.43267,267.51802 982.71272,268.79801 976.55277,271.43799   C 970.47281,273.99797 964.71285,277.91794 959.75289,282.79791   C 951.91295,290.55785 945.99299,300.63777 944.15301,310.8777   C 942.47302,310.1577 940.63303,309.75771 938.79305,309.75771   C 929.51311,309.75771 918.4732,317.99764 917.11321,326.71758   C 911.03325,322.95761 903.9133,320.95762 896.71336,320.95762   C 892.63339,320.95762 888.63342,321.59762 884.71345,322.87761   C 874.07353,326.47758 864.0736,333.91753 860.07363,344.39745   C 855.19367,334.79752 842.95376,329.35756 831.27384,329.35756   C 825.91388,329.35756 820.63392,330.55755 816.31395,333.03753   C 811.19399,327.35758 801.75406,322.71761 793.59412,322.71761   C 790.87414,322.71761 788.31416,323.19761 786.07418,324.3976   C 778.39423,309.59771 762.07436,299.83778 745.51448,299.83778   C 744.47449,299.83778 743.43449,299.91778 742.3945,299.91778   C 724.71463,301.27777 708.71475,311.91769 702.95479,328.63757   C 700.23481,327.19758 697.03484,326.47758 693.75486,326.47758   C 685.83492,326.47758 677.59498,330.47755 674.07501,337.1975   C 665.43507,331.51754 655.11515,328.71757 644.71522,328.71757   C 640.07526,328.71757 635.51529,329.27756 631.03533,330.31755   C 619.43541,320.95762 608.31549,310.7977 594.71559,304.71774   L 593.8356,301.03777   L 593.11561,304.07775   C 592.55561,303.83775 591.99561,303.59775 591.35562,303.35775   L 589.51563,295.35781   L 587.99564,302.15776   C 581.99569,300.15778 575.75574,298.95779 569.51578,298.31779   L 568.07579,292.31783   L 566.7158,298.15779   C 565.67581,298.07779 564.63582,297.99779 563.59583,297.91779   L 564.79582,297.91779   L 562.63583,288.63786   L 561.11584,295.19781   L 558.07587,281.99791   L 555.03589,295.43781   L 554.1559,291.75784   L 552.79591,297.91779   C 535.99603,298.39779 518.71616,301.27777 501.59628,302.47776   L 499.9963,295.35781   L 498.31631,302.71776   C 497.99631,302.71776 497.67631,302.71776 497.43632,302.71776   L 495.67633,295.35781   L 493.99634,302.87776   C 491.99636,302.95776 489.99637,303.03776 487.99639,303.03776   C 483.51642,303.03776 479.03645,302.79776 474.55648,302.31776   C 458.15661,300.63777 442.71672,295.19781 427.51683,288.71786   L 426.07684,282.47791   L 424.95685,287.59787   C 408.39697,280.39792 392.1571,272.07798 375.35722,266.07803   L 373.99723,260.39807   L 372.87724,265.19804   C 372.63724,265.11804 372.31724,265.03804 372.07724,264.95804   L 369.51726,253.75812   L 367.27728,263.35805   C 359.67734,261.11807 351.91739,259.35808 343.91745,258.47809   C 339.75748,257.99809 335.51751,257.75809 331.35755,257.75809   C 330.47755,257.75809 329.67756,257.75809 328.79756,257.75809   L 327.67757,253.11813   L 326.63758,257.83809   C 295.19781,259.11808 264.79804,272.23798 236.07825,285.99788   L 236.07825,285.99788   L 234.47826,279.35793   L 232.95827,286.23788   C 230.55829,285.67788 228.15831,285.11789 225.75833,284.63789   C 215.6784,282.39791 205.59848,280.47792 195.51855,278.87793   L 194.15856,273.03798   L 192.87857,278.39794   C 192.31858,278.31794 191.67858,278.23794 191.03858,278.15794   L 189.91859,273.03798   L 188.7986,277.75794   C 186.55862,277.43794 184.31863,277.11795 182.15865,276.79795   L 180.95866,271.59799   L 179.83867,276.47795   C 156.87884,273.35798 133.91901,271.59799 111.11918,271.59799   C 89.199339,271.59799 67.5195,273.19798 46.079659,276.71795   L 44.879668,271.43799   L 43.599677,277.11795   C 42.399686,277.27795 41.279694,277.51794 40.079703,277.67794   L 39.039711,273.19798   L 37.919719,278.15794   C 36.239732,278.47794 34.479745,278.79793 32.799757,279.11793   L 32.479759,277.83794   L 32.159762,279.27793   C 29.999778,279.67793 27.839794,280.15792 25.67981,280.63792   L 24.159821,274.23797   L 22.719832,280.71792   L 19.679854,267.51802   L 16.15988,282.9579   C 10.719921,284.31789 5.3599603,285.75788 0,287.43787   L 0,400.31703   L 0,400.31703   L 0,666.63506   z" id="path11"/>
    </clipPath><clipPath clipPathUnits="userSpaceOnUse" id="clipEmfPath5">
      <path d="  M 883.03346,395.11707   L 883.03346,395.11707   C 862.79361,382.87716 843.43375,368.31727 823.0339,357.35735   L 821.67391,351.3574   L 820.55392,355.99736   C 816.63395,353.99738 812.63398,352.07739 808.63401,350.3974   L 806.87402,342.71746   L 805.59403,348.31742   L 804.71404,344.63745   L 803.83405,348.47742   C 792.31413,343.99745 780.31422,341.11747 767.43432,340.87747   C 766.79432,340.79748 766.07433,340.79748 765.43433,340.79748   C 755.11441,340.79748 744.71448,342.47746 734.31456,344.55745   L 732.63457,337.2775   L 730.79459,345.27744   C 729.99459,345.43744 729.1946,345.59744 728.3946,345.75744   L 726.87462,339.03749   L 725.11463,346.47743   C 711.35473,349.35741 697.67483,352.31739 684.31493,352.31739   C 678.39497,352.31739 672.47502,351.67739 666.71506,350.31741   L 665.83507,346.71743   L 665.11507,349.91741   C 664.79508,349.83741 664.39508,349.67741 663.99508,349.59741   L 662.31509,342.07747   L 660.79511,348.55742   C 659.67511,348.15742 658.55512,347.75742 657.51513,347.35743   L 656.31514,342.07747   L 655.27515,346.39743   C 654.47515,345.99744 653.75516,345.67744 652.95516,345.27744   L 650.87518,336.39751   L 649.91519,340.79748   L 648.5552,334.79752   L 646.87521,341.91747   C 645.43522,341.03747 643.99523,340.07748 642.55524,339.11749   L 642.23524,337.4375   L 641.91525,338.63749   C 638.15527,336.07751 634.5553,333.27753 631.03533,330.39755   L 631.03533,330.31755   C 635.51529,329.27756 640.07526,328.71757 644.71522,328.71757   C 655.11515,328.71757 665.43507,331.51754 674.07501,337.1975   C 677.59498,330.47755 685.83492,326.47758 693.75486,326.47758   C 697.03484,326.47758 700.23481,327.19758 702.95479,328.63757   C 708.71475,311.91769 724.71463,301.27777 742.3945,299.91778   C 743.43449,299.91778 744.47449,299.83778 745.51448,299.83778   C 762.07436,299.83778 778.39423,309.59771 786.07418,324.3976   C 788.31416,323.19761 790.87414,322.71761 793.59412,322.71761   C 801.75406,322.71761 811.19399,327.35758 816.31395,333.03753   C 820.63392,330.55755 825.91388,329.35756 831.27384,329.35756   C 842.95376,329.35756 855.19367,334.79752 860.07363,344.39745   C 864.0736,333.91753 874.07353,326.47758 884.71345,322.87761   C 888.63342,321.59762 892.63339,320.95762 896.71336,320.95762   C 903.9133,320.95762 911.03325,322.95761 917.11321,326.71758   C 918.4732,317.99764 929.51311,309.75771 938.79305,309.75771   C 940.63303,309.75771 942.47302,310.1577 944.15301,310.8777   C 945.99299,300.63777 951.91295,290.55785 959.75289,282.79791   C 964.71285,277.91794 970.47281,273.99797 976.55277,271.43799   C 982.71272,268.79801 989.43267,267.51802 996.15262,267.51802   C 997.43261,267.51802 998.7126,267.59802 999.99259,267.67802   L 999.99259,312.87768   C 991.27266,316.47766 983.11272,322.23761 976.39277,328.63757   C 962.15287,342.15747 951.59295,359.03734 936.31306,371.43725   C 920.87318,383.99716 902.63331,390.79711 883.03346,395.11707 " id="path14"/>
    </clipPath><clipPath clipPathUnits="userSpaceOnUse" id="clipEmfPath6">
      <path d="  M 703.19479,456.63662   C 702.0748,456.39662 700.95481,456.15662 699.83482,455.91662   C 693.19487,454.47663 686.63491,452.95664 680.07496,451.35666   C 623.67538,437.27676 569.75578,416.31692 516.47617,393.51709   L 515.83618,390.71711   L 515.27618,393.03709   C 511.03621,391.1971 506.71625,389.35712 502.47628,387.51713   L 501.03629,381.43717   L 499.9163,386.39714   C 499.7563,386.31714 499.5963,386.23714 499.4363,386.23714   L 498.9563,383.99716   L 498.47631,385.83714   C 451.27666,365.27729 404.397,343.91745 356.39736,325.11759   L 355.67737,321.83762   L 355.03737,324.5576   C 354.55737,324.3976 354.07738,324.2376 353.67738,323.9976   L 352.07739,317.19765   L 350.7174,322.95761   C 349.51741,322.47761 348.31742,321.99761 347.03743,321.51762   L 346.07744,317.19765   L 345.27744,320.79762   C 344.39745,320.47763 343.51746,320.15763 342.63746,319.75763   L 340.71748,311.51769   L 339.67748,315.91766   L 338.31749,309.9977   L 336.55751,317.51765   C 335.35752,317.11765 334.07753,316.63765 332.79753,316.15766   L 331.99754,312.55768   L 331.27755,315.59766   C 315.27766,309.67771 298.87779,304.23775 282.31791,299.19778   L 280.95792,293.27783   L 279.75793,298.47779   C 277.03795,297.67779 274.23797,296.8778 271.51799,296.07781   L 269.518,287.67787   L 268.55801,291.99784   L 267.19802,286.07788   L 265.27803,294.31782   C 261.99806,293.43783 258.71808,292.55783 255.35811,291.67784   L 254.63811,288.63786   L 254.07812,291.35784   C 253.43812,291.19784 252.79813,290.95784 252.15813,290.79785   L 250.15815,281.99791   L 248.31816,289.91785   C 244.31819,288.87786 240.31822,287.91787 236.23825,286.95787   L 236.07825,285.99788   L 236.07825,285.99788   C 264.79804,272.23798 295.19781,259.11808 326.63758,257.83809   L 327.67757,253.11813   L 328.79756,257.75809   C 329.67756,257.75809 330.47755,257.75809 331.35755,257.75809   C 335.51751,257.75809 339.75748,257.99809 343.91745,258.47809   C 351.91739,259.35808 359.67734,261.11807 367.27728,263.35805   L 369.51726,253.75812   L 372.07724,264.95804   C 372.31724,265.03804 372.63724,265.11804 372.87724,265.19804   L 373.99723,260.39807   L 375.35722,266.07803   C 392.1571,272.07798 408.39697,280.39792 424.95685,287.59787   L 426.07684,282.47791   L 427.51683,288.71786   C 442.71672,295.19781 458.15661,300.63777 474.55648,302.31776   C 479.03645,302.79776 483.51642,303.03776 487.99639,303.03776   C 489.99637,303.03776 491.99636,302.95776 493.99634,302.87776   L 495.67633,295.35781   L 497.43632,302.71776   C 497.67631,302.71776 497.99631,302.71776 498.31631,302.71776   L 499.9963,295.35781   L 501.59628,302.47776   C 518.71616,301.27777 535.99603,298.39779 552.79591,297.91779   L 554.1559,291.75784   L 555.03589,295.43781   L 558.07587,281.99791   L 561.11584,295.19781   L 562.63583,288.63786   L 564.79582,297.91779   L 563.59583,297.91779   C 564.63582,297.99779 565.67581,298.07779 566.7158,298.15779   L 568.07579,292.31783   L 569.51578,298.31779   C 575.75574,298.95779 581.99569,300.15778 587.99564,302.15776   L 589.51563,295.35781   L 591.35562,303.35775   C 591.99561,303.59775 592.55561,303.83775 593.11561,304.07775   L 593.8356,301.03777   L 594.71559,304.71774   C 608.31549,310.7977 619.43541,320.95762 631.03533,330.31755   L 631.03533,330.39755   C 634.5553,333.27753 638.15527,336.07751 641.91525,338.63749   L 642.23524,337.4375   L 642.55524,339.11749   C 643.99523,340.07748 645.43522,341.03747 646.87521,341.91747   L 648.5552,334.79752   L 649.91519,340.79748   L 650.87518,336.39751   L 652.95516,345.27744   C 653.75516,345.67744 654.47515,345.99744 655.27515,346.39743   L 656.31514,342.07747   L 657.51513,347.35743   C 658.55512,347.75742 659.67511,348.15742 660.79511,348.55742   L 662.31509,342.07747   L 663.99508,349.59741   C 664.39508,349.67741 664.79508,349.83741 665.11507,349.91741   L 665.83507,346.71743   L 666.71506,350.31741   C 672.47502,351.67739 678.39497,352.31739 684.31493,352.31739   C 697.67483,352.31739 711.35473,349.35741 725.11463,346.47743   L 726.87462,339.03749   L 728.3946,345.75744   C 729.1946,345.59744 729.99459,345.43744 730.79459,345.27744   L 732.63457,337.2775   L 734.31456,344.55745   C 744.71448,342.47746 755.11441,340.79748 765.43433,340.79748   C 766.07433,340.79748 766.79432,340.79748 767.43432,340.87747   C 780.31422,341.11747 792.31413,343.99745 803.83405,348.47742   L 804.71404,344.63745   L 805.59403,348.31742   L 806.87402,342.71746   L 808.63401,350.3974   C 812.63398,352.07739 816.63395,353.99738 820.55392,355.99736   L 821.67391,351.3574   L 823.0339,357.35735   C 843.43375,368.31727 862.79361,382.87716 883.03346,395.11707   L 883.03346,395.11707   L 883.03346,395.11707   C 855.59366,401.27703 825.67388,402.55702 797.43409,408.23698   C 786.79417,410.31696 776.39425,413.03694 766.47432,416.79691   C 742.8745,425.83685 722.71465,440.71674 703.19479,456.63662 " id="path17"/>
    </clipPath><clipPath clipPathUnits="userSpaceOnUse" id="clipEmfPath7">
      <path d="  M 0,505.03626   L 0,505.03626   L 0,340.07748   C 0.63999526,340.07748 1.1999911,340.07748 1.8399864,340.07748   C 23.519826,340.07748 45.279665,346.55743 63.119532,358.95734   C 71.999467,354.95737 81.839394,352.79739 91.519322,352.79739   C 105.27922,352.79739 118.71912,357.11735 128.71905,366.55728   C 129.83904,366.39729 131.03903,366.23729 132.23902,366.23729   C 143.75894,366.23729 155.67885,375.43722 159.11882,386.47714   C 166.79876,383.11716 175.5987,381.43717 184.31863,381.43717   C 192.23858,381.43717 200.07852,382.79716 207.11847,385.51714   C 221.99836,391.2771 234.39826,403.11701 240.87822,417.67691   C 245.43818,413.67694 251.43814,411.83695 257.43809,411.83695   C 266.47803,411.83695 275.59796,415.99692 280.39792,423.75686   C 293.27783,415.11693 311.35769,410.47696 328.15757,410.47696   C 333.51753,410.47696 338.71749,410.95696 343.59745,411.91695   C 363.67731,415.91692 382.07717,428.15683 393.51709,445.1167   C 397.03706,442.15672 401.19703,440.79673 405.357,440.79673   C 411.43695,440.79673 417.59691,443.75671 422.15687,448.79668   C 430.79681,437.83676 445.6767,432.6368 459.5966,431.5968   C 460.79659,431.5168 461.99658,431.4368 463.19657,431.4368   C 475.91647,431.4368 488.55638,436.39677 497.83631,445.1167   C 505.35626,438.23675 515.11618,433.03679 525.19611,433.03679   C 526.0761,433.03679 527.0361,433.11679 527.99609,433.19679   C 531.11607,433.51679 534.23604,434.15678 537.19602,435.27678   L 534.31604,447.99668   C 531.51606,448.31668 528.71608,448.71668 525.9161,449.03667   L 524.23612,441.59673   L 522.39613,449.59667   C 515.03618,450.71666 507.59624,452.07665 499.9963,453.75664   C 443.19672,466.07655 387.35713,485.5164 330.63755,485.5164   C 317.75765,485.5164 304.95774,484.47641 291.99784,482.23643   C 291.59784,482.15643 291.27784,482.07643 290.87785,481.99643   L 289.11786,474.23649   L 287.43787,481.35643   C 277.83794,479.35645 268.55801,476.47647 259.51808,472.8765   L 254.79811,452.63665   L 251.67814,466.39655   L 249.83815,458.6366   L 247.75816,467.91653   C 208.63845,450.07667 173.19872,421.75688 133.11901,403.91701   L 131.75902,397.91705   L 130.55903,402.79702   C 122.63909,399.35704 114.47915,396.39706 106.07921,393.99708   L 103.91923,384.79715   L 102.07924,392.87709   C 96.479285,391.4371 90.799327,390.23711 85.03937,389.35712   L 83.199384,381.43717   L 81.839394,387.35713   L 77.679425,369.35726   L 73.359457,388.07713   C 71.439471,387.91713 69.439486,387.75713 67.4395,387.67713   L 64.159525,373.35723   L 60.879549,387.59713   C 57.279576,387.59713 53.519604,387.75713 49.759631,388.07713   L 48.879638,384.15715   L 47.999644,388.23712   C 43.039681,388.63712 38.079718,389.27712 32.959756,390.23711   L 29.599781,375.75722   L 26.159806,390.8771   L 19.119858,360.31733   L 10.959919,395.59707   C 7.3599455,396.71706 3.6799727,397.99705 0,399.35704   L 0,505.03626   M 547.91594,446.71669   L 546.31595,439.75674   C 547.51594,440.55674 548.63594,441.35673 549.67593,442.23672   L 548.63594,446.71669   C 548.39594,446.71669 548.15594,446.71669 547.91594,446.71669 " id="path20"/>
    </clipPath><clipPath clipPathUnits="userSpaceOnUse" id="clipEmfPath8">
      <path d="  M 824.39389,510.55622   C 823.4339,510.39622 822.47391,510.23622 821.51391,510.07622   C 817.91394,509.51623 814.15397,509.19623 810.474,509.19623   C 806.55403,509.19623 802.71405,509.51623 798.87408,510.15622   C 797.19409,509.43623 795.43411,508.71623 793.75412,507.99624   C 788.31416,505.75625 782.7942,503.43627 777.27424,501.19629   L 774.95426,490.95636   L 772.95427,499.4363   C 772.31428,499.1963 771.59428,498.8763 770.87429,498.55631   L 766.63432,480.15644   L 763.11435,495.43633   C 760.55437,494.39634 758.07438,493.43634 755.5144,492.39635   L 752.71442,480.15644   L 750.39444,490.39637   C 748.63445,489.67637 746.87447,488.95638 745.11448,488.31638   L 740.23452,467.03654   L 737.91453,477.19647   L 734.71456,463.43657   L 730.31459,482.63642   C 727.43461,481.51643 724.47463,480.47644 721.59465,479.35645   L 719.99467,472.5565   L 718.63468,478.31646   C 708.95475,474.79648 699.11482,471.35651 689.35489,468.15653   C 689.35489,468.15653 689.35489,468.15653 689.27489,468.15653   L 689.27489,468.15653   C 692.79487,465.27655 696.31484,462.31658 699.75482,459.4366   C 700.95481,458.5566 702.0748,457.59661 703.19479,456.63662   C 703.19479,456.63662 703.19479,456.63662 703.19479,456.63662   C 722.71465,440.71674 742.8745,425.83685 766.47432,416.79691   C 776.39425,413.03694 786.79417,410.31696 797.43409,408.23698   C 825.67388,402.55702 855.59366,401.27703 883.03346,395.11707   L 883.03346,395.11707   C 902.63331,390.79711 920.87318,383.99716 936.31306,371.43725   C 951.59295,359.03734 962.15287,342.15747 976.39277,328.63757   C 983.11272,322.23761 991.27266,316.47766 999.99259,312.87768   L 999.99259,312.87768   L 999.99259,362.63731   C 997.99261,362.15732 995.99262,361.91732 993.99264,361.91732   C 980.87273,361.91732 968.23283,371.27725 961.59288,382.95716   C 957.27291,390.39711 955.11293,398.23705 953.83293,406.39699   C 953.11294,410.63696 952.63294,415.03693 952.23295,419.43689   C 951.99295,421.83688 951.75295,424.31686 951.51295,426.79684   C 949.51297,425.91685 947.35298,425.51685 945.193,425.51685   C 936.31306,425.51685 927.11313,432.3168 923.27316,440.71674   C 922.95316,441.27673 922.71317,441.91673 922.55317,442.55672   C 920.87318,441.19673 919.03319,440.15674 917.03321,439.27675   C 913.51323,437.67676 909.67326,436.87676 905.83329,436.87676   C 902.63331,436.87676 899.51334,437.43676 896.55336,438.55675   C 887.99342,441.83673 880.15348,448.63668 878.47349,457.67661   C 875.67351,457.11661 872.87353,456.87662 870.07356,456.87662   C 858.15364,456.87662 846.31373,461.35658 837.5938,469.51652   C 836.8738,470.15652 836.15381,470.87651 835.51381,471.59651   C 826.71388,481.27643 823.1939,495.59633 824.23389,508.63623   C 824.23389,509.27623 824.31389,509.91622 824.39389,510.55622 " id="path23"/>
    </clipPath><clipPath clipPathUnits="userSpaceOnUse" id="clipEmfPath9">
      <path d="  M 999.99259,666.63506   L 0,666.63506   L 0,399.35704   C 3.6799727,397.99705 7.3599455,396.71706 10.959919,395.59707   L 19.119858,360.31733   L 26.159806,390.8771   L 29.599781,375.75722   L 32.959756,390.23711   C 38.079718,389.27712 43.039681,388.63712 47.999644,388.23712   L 48.879638,384.15715   L 49.759631,388.07713   C 53.519604,387.75713 57.279576,387.59713 60.879549,387.59713   L 64.159525,373.35723   L 67.4395,387.67713   C 69.439486,387.75713 71.439471,387.91713 73.359457,388.07713   L 77.679425,369.35726   L 81.839394,387.35713   L 83.199384,381.43717   L 85.03937,389.35712   C 90.799327,390.23711 96.479285,391.4371 102.07924,392.87709   L 103.91923,384.79715   L 106.07921,393.99708   C 114.47915,396.39706 122.63909,399.35704 130.55903,402.79702   L 131.75902,397.91705   L 133.11901,403.91701   C 173.19872,421.75688 208.63845,450.07667 247.75816,467.91653   L 249.83815,458.6366   L 251.67814,466.39655   L 254.79811,452.63665   L 259.51808,472.8765   C 268.55801,476.47647 277.83794,479.35645 287.43787,481.35643   L 289.11786,474.23649   L 290.87785,481.99643   C 291.27784,482.07643 291.59784,482.15643 291.99784,482.23643   C 304.95774,484.47641 317.75765,485.5164 330.63755,485.5164   C 387.35713,485.5164 443.19672,466.07655 499.9963,453.75664   C 507.59624,452.07665 515.03618,450.71666 522.39613,449.59667   L 524.23612,441.59673   L 525.9161,449.03667   C 528.71608,448.71668 531.51606,448.31668 534.31604,447.99668   L 537.19602,435.27678   L 541.27599,417.75691   L 546.31595,439.75674   L 547.91594,446.71669   C 548.15594,446.71669 548.39594,446.71669 548.63594,446.71669   L 549.67593,442.23672   L 551.75591,433.19679   L 554.79589,446.31669   C 559.43586,446.0767 563.99582,445.9967 568.55579,445.9967   C 571.19577,445.9967 573.83575,445.9967 576.47573,446.0767   L 580.7957,427.19684   L 583.99567,440.95673   L 586.31566,430.79681   L 589.99563,446.79669   C 597.19558,447.27669 604.31552,448.07668 611.51547,449.11667   L 612.71546,443.99671   L 613.99545,449.43667   C 638.15527,453.11664 662.71509,459.4366 689.27489,468.15653   C 689.35489,468.15653 689.35489,468.15653 689.35489,468.15653   C 699.11482,471.35651 708.95475,474.79648 718.63468,478.31646   L 719.99467,472.5565   L 721.59465,479.35645   C 724.47463,480.47644 727.43461,481.51643 730.31459,482.63642   L 734.71456,463.43657   L 737.91453,477.19647   L 740.23452,467.03654   L 745.11448,488.31638   C 746.87447,488.95638 748.63445,489.67637 750.39444,490.39637   L 752.71442,480.15644   L 755.5144,492.39635   C 758.07438,493.43634 760.55437,494.39634 763.11435,495.43633   L 766.63432,480.15644   L 770.87429,498.55631   C 771.59428,498.8763 772.31428,499.1963 772.95427,499.4363   L 774.95426,490.95636   L 777.27424,501.19629   C 782.7942,503.43627 788.31416,505.75625 793.75412,507.99624   C 795.43411,508.71623 797.19409,509.43623 798.87408,510.15622   C 779.27423,513.1962 761.19436,524.23612 752.31443,541.91599   C 746.87447,537.11602 739.75452,534.71604 732.71457,534.71604   C 725.11463,534.71604 717.43469,537.43602 711.83473,542.79598   C 705.51477,532.95605 693.91486,526.8761 682.23495,526.8761   C 680.63496,526.8761 679.03497,527.0361 677.43498,527.27609   C 664.23508,529.19608 651.67517,538.15601 648.0752,550.95592   C 646.63521,550.63592 645.35522,550.47592 644.07523,550.47592   C 643.19524,550.47592 642.39524,550.55592 641.59525,550.71592   C 635.43529,551.59591 630.55533,556.07588 626.55536,562.07584   C 621.5154,561.11584 616.39543,560.39585 611.19547,560.39585   C 604.79552,560.39585 598.39557,561.51584 592.55561,564.23582   C 582.39569,569.03578 573.59575,580.4757 575.51574,591.51562   C 575.59574,591.83562 575.59574,592.07561 575.67574,592.39561   C 575.59574,592.07561 575.51574,591.83562 575.43574,591.59562   C 573.67575,587.03565 565.91581,585.67566 560.23585,585.67566   C 558.39586,585.67566 556.71588,585.83566 555.59588,586.07566   C 548.15594,587.59565 541.43599,592.95561 540.396,600.87555   C 536.55603,598.07557 531.83606,596.71558 527.0361,596.71558   C 524.39612,596.71558 521.75614,597.11558 519.27615,597.91557   C 514.71619,599.19556 510.63622,601.59554 506.95624,604.55552   C 504.79626,606.23551 502.87627,608.0755 501.11629,610.07548   C 498.55631,612.87546 496.31632,615.91544 494.39634,619.11541   C 491.27636,624.31538 488.95638,629.91533 487.67639,635.75529   L 999.99259,635.75529   L 999.99259,666.63506   z" id="path26"/>
    </clipPath><clipPath clipPathUnits="userSpaceOnUse" id="clipEmfPath10">
      <path d="  M 999.99259,593.5956   C 997.19261,592.39561 994.47263,591.27562 991.67265,590.07563   C 934.95307,566.5558 878.23349,543.03598 821.51391,519.51615   C 813.99397,516.39617 806.39403,513.2762 798.87408,510.15622   C 802.71405,509.51623 806.55403,509.19623 810.474,509.19623   C 814.15397,509.19623 817.91394,509.51623 821.51391,510.07622   C 822.47391,510.23622 823.4339,510.39622 824.39389,510.55622   C 824.31389,509.91622 824.23389,509.27623 824.23389,508.63623   C 823.1939,495.59633 826.71388,481.27643 835.51381,471.59651   C 836.15381,470.87651 836.8738,470.15652 837.5938,469.51652   C 846.31373,461.35658 858.15364,456.87662 870.07356,456.87662   C 872.87353,456.87662 875.67351,457.11661 878.47349,457.67661   C 880.15348,448.63668 887.99342,441.83673 896.55336,438.55675   C 899.51334,437.43676 902.63331,436.87676 905.83329,436.87676   C 909.67326,436.87676 913.51323,437.67676 917.03321,439.27675   C 919.03319,440.15674 920.87318,441.19673 922.55317,442.55672   C 922.71317,441.91673 922.95316,441.27673 923.27316,440.71674   C 927.11313,432.3168 936.31306,425.51685 945.193,425.51685   C 947.35298,425.51685 949.51297,425.91685 951.51295,426.79684   C 951.75295,424.31686 951.99295,421.83688 952.23295,419.43689   C 952.63294,415.03693 953.11294,410.63696 953.83293,406.39699   C 955.11293,398.23705 957.27291,390.39711 961.59288,382.95716   C 968.23283,371.27725 980.87273,361.91732 993.99264,361.91732   C 995.99262,361.91732 997.99261,362.15732 999.99259,362.63731   L 999.99259,593.5956 " id="path29"/>
    </clipPath><clipPath clipPathUnits="userSpaceOnUse" id="clipEmfPath11">
      <path d="  M 999.99259,635.75529   L 487.67639,635.75529   C 488.95638,629.91533 491.27636,624.31538 494.39634,619.11541   C 496.31632,615.91544 498.55631,612.87546 501.11629,610.07548   C 502.87627,608.0755 504.79626,606.23551 506.95624,604.55552   C 510.63622,601.59554 514.71619,599.19556 519.27615,597.91557   C 521.75614,597.11558 524.39612,596.71558 527.0361,596.71558   C 531.83606,596.71558 536.55603,598.07557 540.396,600.87555   C 541.43599,592.95561 548.15594,587.59565 555.59588,586.07566   C 556.71588,585.83566 558.39586,585.67566 560.23585,585.67566   C 565.91581,585.67566 573.67575,587.03565 575.43574,591.59562   C 575.51574,591.83562 575.59574,592.07561 575.67574,592.39561   C 575.59574,592.07561 575.59574,591.83562 575.51574,591.51562   C 573.59575,580.4757 582.39569,569.03578 592.55561,564.23582   C 598.39557,561.51584 604.79552,560.39585 611.19547,560.39585   C 616.39543,560.39585 621.5154,561.11584 626.55536,562.07584   C 630.55533,556.07588 635.43529,551.59591 641.59525,550.71592   C 642.39524,550.55592 643.19524,550.47592 644.07523,550.47592   C 645.35522,550.47592 646.63521,550.63592 648.0752,550.95592   C 651.67517,538.15601 664.23508,529.19608 677.43498,527.27609   C 679.03497,527.0361 680.63496,526.8761 682.23495,526.8761   C 693.91486,526.8761 705.51477,532.95605 711.83473,542.79598   C 717.43469,537.43602 725.11463,534.71604 732.71457,534.71604   C 739.75452,534.71604 746.87447,537.11602 752.31443,541.91599   C 761.19436,524.23612 779.27423,513.1962 798.87408,510.15622   C 806.39403,513.2762 813.99397,516.39617 821.51391,519.51615   C 878.23349,543.03598 934.95307,566.5558 991.67265,590.07563   C 994.47263,591.27562 997.19261,592.39561 999.99259,593.5956   L 999.99259,593.5956   L 999.99259,635.75529 " id="path32"/>
    </clipPath><clipPath clipPathUnits="userSpaceOnUse" id="clipEmfPath12">
      <path d="  M 999.99259,409.51697   L 999.99259,666.63506   L 0,666.63506   L 0,529.27608   C 33.519752,507.91624 68.159495,488.47638 106.07921,477.43646   C 110.47918,476.15647 114.87915,475.03648 119.27912,474.23649   L 126.71906,441.59673   L 133.75901,472.0765   C 135.91899,471.9165 137.99898,471.75651 140.15896,471.59651   L 143.75894,455.75662   L 146.79891,468.79653   L 152.31887,444.9567   L 158.47883,471.8365   C 172.23872,472.8765 185.83862,475.67648 199.03853,479.99644   L 201.11851,471.27651   L 203.43849,481.51643   C 220.23837,487.43639 236.55825,495.75633 252.23813,505.59625   C 272.87798,518.55616 293.91782,534.07604 314.39767,548.47594   C 333.83753,562.31583 353.59738,579.43571 378.79719,578.79571   C 383.19716,578.71571 387.59713,578.15572 391.9171,577.35572   C 394.79708,576.79573 397.67705,576.15573 400.55703,575.43574   C 413.67694,572.31576 426.71684,568.39579 439.91674,570.07578   C 449.51667,571.27577 458.15661,575.27574 466.47654,580.2357   L 467.59654,575.27574   L 469.19652,581.91569   C 471.59651,583.43568 473.91649,584.95567 476.31647,586.55566   L 482.15643,561.11584   L 490.15637,595.75559   C 494.23634,598.31557 498.39631,600.71555 502.63628,602.71554   C 504.07627,603.35553 505.51626,603.99553 506.95624,604.55552   C 540.636,618.07542 579.59571,608.31549 614.47545,596.95558   C 632.39532,591.11562 650.23518,584.87567 667.91505,578.31572   L 675.515,545.51596   L 681.83495,573.03576   C 683.19494,572.47576 684.55493,571.99576 685.99492,571.43577   L 688.8749,558.79586   L 691.35488,569.35578   C 735.67455,551.91591 779.19423,532.07606 821.51391,510.07622   L 821.51391,510.07622   C 822.47391,509.59623 823.3539,509.11623 824.23389,508.63623   C 842.63376,499.0363 860.87362,488.95638 878.79349,478.47646   L 880.55348,470.95651   L 881.59347,466.47654   L 882.55346,470.87651   L 883.67345,475.67648   C 886.71343,473.83649 889.75341,472.0765 892.79339,470.23652   C 895.83336,468.39653 898.87334,466.55654 901.91332,464.71656   C 904.6333,463.11657 907.35328,461.43658 910.07326,459.75659   C 910.95325,459.1966 911.83325,458.7166 912.71324,458.15661   L 917.03321,439.27675   L 919.99319,426.47684   L 923.27316,440.71674   L 925.51314,450.39666   C 929.43312,448.07668 933.35309,445.8367 937.27306,443.59671   L 939.51304,433.91679   L 941.27303,441.35673   C 954.71293,433.99679 968.47283,427.35683 982.55272,422.55687   L 983.51271,418.3969   L 986.39269,405.99699   L 986.47269,405.67699   L 986.55269,405.99699   L 988.63268,415.27692   L 990.79266,405.99699   L 994.95263,387.83713   L 999.99259,405.91699   z" id="path35"/>
    </clipPath><pattern id="EMFhbasepattern" patternUnits="userSpaceOnUse" width="6" height="6" x="0" y="0"/><clipPath clipPathUnits="userSpaceOnUse" id="path-1">
      <path d="  M 999.99259,666.63506   L 0,666.63506   L 0,399.35704   C 3.6799727,397.99705 7.3599455,396.71706 10.959919,395.59707   L 19.119858,360.31733   L 26.159806,390.8771   L 29.599781,375.75722   L 32.959756,390.23711   C 38.079718,389.27712 43.039681,388.63712 47.999644,388.23712   L 48.879638,384.15715   L 49.759631,388.07713   C 53.519604,387.75713 57.279576,387.59713 60.879549,387.59713   L 64.159525,373.35723   L 67.4395,387.67713   C 69.439486,387.75713 71.439471,387.91713 73.359457,388.07713   L 77.679425,369.35726   L 81.839394,387.35713   L 83.199384,381.43717   L 85.03937,389.35712   C 90.799327,390.23711 96.479285,391.4371 102.07924,392.87709   L 103.91923,384.79715   L 106.07921,393.99708   C 114.47915,396.39706 122.63909,399.35704 130.55903,402.79702   L 131.75902,397.91705   L 133.11901,403.91701   C 173.19872,421.75688 208.63845,450.07667 247.75816,467.91653   L 249.83815,458.6366   L 251.67814,466.39655   L 254.79811,452.63665   L 259.51808,472.8765   C 268.55801,476.47647 277.83794,479.35645 287.43787,481.35643   L 289.11786,474.23649   L 290.87785,481.99643   C 291.27784,482.07643 291.59784,482.15643 291.99784,482.23643   C 304.95774,484.47641 317.75765,485.5164 330.63755,485.5164   C 387.35713,485.5164 443.19672,466.07655 499.9963,453.75664   C 507.59624,452.07665 515.03618,450.71666 522.39613,449.59667   L 524.23612,441.59673   L 525.9161,449.03667   C 528.71608,448.71668 531.51606,448.31668 534.31604,447.99668   L 537.19602,435.27678   L 541.27599,417.75691   L 546.31595,439.75674   L 547.91594,446.71669   C 548.15594,446.71669 548.39594,446.71669 548.63594,446.71669   L 549.67593,442.23672   L 551.75591,433.19679   L 554.79589,446.31669   C 559.43586,446.0767 563.99582,445.9967 568.55579,445.9967   C 571.19577,445.9967 573.83575,445.9967 576.47573,446.0767   L 580.7957,427.19684   L 583.99567,440.95673   L 586.31566,430.79681   L 589.99563,446.79669   C 597.19558,447.27669 604.31552,448.07668 611.51547,449.11667   L 612.71546,443.99671   L 613.99545,449.43667   C 638.15527,453.11664 662.71509,459.4366 689.27489,468.15653   C 689.35489,468.15653 689.35489,468.15653 689.35489,468.15653   C 699.11482,471.35651 708.95475,474.79648 718.63468,478.31646   L 719.99467,472.5565   L 721.59465,479.35645   C 724.47463,480.47644 727.43461,481.51643 730.31459,482.63642   L 734.71456,463.43657   L 737.91453,477.19647   L 740.23452,467.03654   L 745.11448,488.31638   C 746.87447,488.95638 748.63445,489.67637 750.39444,490.39637   L 752.71442,480.15644   L 755.5144,492.39635   C 758.07438,493.43634 760.55437,494.39634 763.11435,495.43633   L 766.63432,480.15644   L 770.87429,498.55631   C 771.59428,498.8763 772.31428,499.1963 772.95427,499.4363   L 774.95426,490.95636   L 777.27424,501.19629   C 782.7942,503.43627 788.31416,505.75625 793.75412,507.99624   C 795.43411,508.71623 797.19409,509.43623 798.87408,510.15622   C 779.27423,513.1962 761.19436,524.23612 752.31443,541.91599   C 746.87447,537.11602 739.75452,534.71604 732.71457,534.71604   C 725.11463,534.71604 717.43469,537.43602 711.83473,542.79598   C 705.51477,532.95605 693.91486,526.8761 682.23495,526.8761   C 680.63496,526.8761 679.03497,527.0361 677.43498,527.27609   C 664.23508,529.19608 651.67517,538.15601 648.0752,550.95592   C 646.63521,550.63592 645.35522,550.47592 644.07523,550.47592   C 643.19524,550.47592 642.39524,550.55592 641.59525,550.71592   C 635.43529,551.59591 630.55533,556.07588 626.55536,562.07584   C 621.5154,561.11584 616.39543,560.39585 611.19547,560.39585   C 604.79552,560.39585 598.39557,561.51584 592.55561,564.23582   C 582.39569,569.03578 573.59575,580.4757 575.51574,591.51562   C 575.59574,591.83562 575.59574,592.07561 575.67574,592.39561   C 575.59574,592.07561 575.51574,591.83562 575.43574,591.59562   C 573.67575,587.03565 565.91581,585.67566 560.23585,585.67566   C 558.39586,585.67566 556.71588,585.83566 555.59588,586.07566   C 548.15594,587.59565 541.43599,592.95561 540.396,600.87555   C 536.55603,598.07557 531.83606,596.71558 527.0361,596.71558   C 524.39612,596.71558 521.75614,597.11558 519.27615,597.91557   C 514.71619,599.19556 510.63622,601.59554 506.95624,604.55552   C 504.79626,606.23551 502.87627,608.0755 501.11629,610.07548   C 498.55631,612.87546 496.31632,615.91544 494.39634,619.11541   C 491.27636,624.31538 488.95638,629.91533 487.67639,635.75529   L 999.99259,635.75529   L 999.99259,666.63506   z" id="path-2"/>
    </clipPath></defs><rect id="ee-background" x="0" y="0" width="1440.5845947265625" height="588.2359619140625" style="fill: white; fill-opacity: 0; pointer-events: none;"/>


<g transform="matrix(1.028934359550476, 0, 0, 1.028934359550476, 32.358821868896484, -249.11590576171875)"><rect id="rect-1" x="0" y="0" width="1360.630859375" height="632.80615234375" style="fill: white; fill-opacity: 0; pointer-events: none;"/><defs><style id="ee-google-fonts">@import url(https://fonts.googleapis.com/css?family=Roboto:100,100italic,300,300italic,400,400italic,500,500italic,700,700italic,900,900italic);</style></defs><g transform="matrix(1.3977985382080076, 0, 0, 1.3977985382080076, -39.91049323763286, -291.8528239045829)"><metadata id="metadata117">
    
  </metadata><path style="fill: rgb(167, 46, 58); fill-opacity: 1; stroke: rgb(0, 0, 0); stroke-opacity: 1; stroke-width: 0; paint-order: fill;" transform="matrix(1.0906386375427244, 0, 0, 1.0906386375427244, -2.30833950251224, -62.71898508620622)"/><path style="fill: rgb(167, 46, 58); fill-opacity: 1; stroke: rgb(0, 0, 0); stroke-opacity: 1; stroke-width: 0; paint-order: fill;"/><g transform="matrix(1, 0, 0, 1, 6.565972028509918, 123.68463185512219)"><path style="fill:#681b2a;fill-rule:nonzero;fill-opacity:1;stroke:none;" clip-path="url(#clipEmfPath12)" d="  M 999.99259,409.51697   L 999.99259,666.63506   L 0,666.63506   L 0,529.27608   C 33.519752,507.91624 68.159495,488.47638 106.07921,477.43646   C 110.47918,476.15647 114.87915,475.03648 119.27912,474.23649   L 126.71906,441.59673   L 133.75901,472.0765   C 135.91899,471.9165 137.99898,471.75651 140.15896,471.59651   L 143.75894,455.75662   L 146.79891,468.79653   L 152.31887,444.9567   L 158.47883,471.8365   C 172.23872,472.8765 185.83862,475.67648 199.03853,479.99644   L 201.11851,471.27651   L 203.43849,481.51643   C 220.23837,487.43639 236.55825,495.75633 252.23813,505.59625   C 272.87798,518.55616 293.91782,534.07604 314.39767,548.47594   C 333.83753,562.31583 353.59738,579.43571 378.79719,578.79571   C 383.19716,578.71571 387.59713,578.15572 391.9171,577.35572   C 394.79708,576.79573 397.67705,576.15573 400.55703,575.43574   C 413.67694,572.31576 426.71684,568.39579 439.91674,570.07578   C 449.51667,571.27577 458.15661,575.27574 466.47654,580.2357   L 467.59654,575.27574   L 469.19652,581.91569   C 471.59651,583.43568 473.91649,584.95567 476.31647,586.55566   L 482.15643,561.11584   L 490.15637,595.75559   C 494.23634,598.31557 498.39631,600.71555 502.63628,602.71554   C 504.07627,603.35553 505.51626,603.99553 506.95624,604.55552   C 540.636,618.07542 579.59571,608.31549 614.47545,596.95558   C 632.39532,591.11562 650.23518,584.87567 667.91505,578.31572   L 675.515,545.51596   L 681.83495,573.03576   C 683.19494,572.47576 684.55493,571.99576 685.99492,571.43577   L 688.8749,558.79586   L 691.35488,569.35578   C 735.67455,551.91591 779.19423,532.07606 821.51391,510.07622   L 821.51391,510.07622   C 822.47391,509.59623 823.3539,509.11623 824.23389,508.63623   C 842.63376,499.0363 860.87362,488.95638 878.79349,478.47646   L 880.55348,470.95651   L 881.59347,466.47654   L 882.55346,470.87651   L 883.67345,475.67648   C 886.71343,473.83649 889.75341,472.0765 892.79339,470.23652   C 895.83336,468.39653 898.87334,466.55654 901.91332,464.71656   C 904.6333,463.11657 907.35328,461.43658 910.07326,459.75659   C 910.95325,459.1966 911.83325,458.7166 912.71324,458.15661   L 917.03321,439.27675   L 919.99319,426.47684   L 923.27316,440.71674   L 925.51314,450.39666   C 929.43312,448.07668 933.35309,445.8367 937.27306,443.59671   L 939.51304,433.91679   L 941.27303,441.35673   C 954.71293,433.99679 968.47283,427.35683 982.55272,422.55687   L 983.51271,418.3969   L 986.39269,405.99699   L 986.47269,405.67699   L 986.55269,405.99699   L 988.63268,415.27692   L 990.79266,405.99699   L 994.95263,387.83713   L 999.99259,405.91699   L 999.99259,409.51697   z " id="path65" transform="matrix(0.9999999999999999, 0, 0, 0.9999999999999999, 0, 0)"/><path style="fill:#261519;fill-rule:nonzero;fill-opacity:1;stroke:none;" d="  M 965.43285,597.19558   L 951.03296,572.07576   L 941.43303,601.99554   L 934.39308,585.27566   L 926.79313,609.91548   C 925.91314,609.91548 924.95315,609.99548 924.07316,609.99548   L 914.39323,567.83579   L 909.83326,596.79558   L 900.39333,555.43589   L 891.5934,611.43547   L 891.4334,611.43547   L 886.47343,592.95561   L 881.75347,611.91547   C 868.71357,612.55546 855.59366,613.35546 842.47376,614.15545   L 835.19381,593.19561   L 831.11384,608.0755   L 823.9139,581.91569   L 818.79393,614.47545   L 813.99397,600.15555   L 809.27401,616.31543   C 804.55404,616.71543 799.83408,617.03543 795.03411,617.35543   L 792.31413,605.43552   L 789.75415,617.75542   C 787.83416,617.91542 785.91418,618.07542 784.07419,618.23542   L 778.31423,593.03561   L 773.11427,619.03541   C 768.71431,619.43541 764.23434,619.75541 759.83437,620.15541   L 756.2344,609.75548   L 752.71442,620.7154   C 733.67457,622.31539 714.71471,624.07538 695.83485,625.91536   L 689.0349,604.95552   L 683.67494,624.39537   L 674.07501,599.27556   L 664.87507,629.03534   C 661.1951,629.43534 657.51513,629.83533 653.91516,630.23533   L 649.67519,611.59547   L 646.55521,631.03533   C 645.35522,631.19532 644.15523,631.27532 642.95524,631.43532   L 635.59529,599.19556   L 630.31533,632.87531   C 614.95544,634.5553 599.75556,636.39529 584.63567,638.23527   L 576.15573,619.03541   L 570.79577,636.87528   L 566.8758,624.71537   L 563.27583,640.95525   C 544.23597,643.35523 525.43611,645.91522 506.87625,648.5552   L 497.11632,612.31546   L 488.23638,651.19518   C 484.23641,651.75517 480.31644,652.39517 476.31647,652.95516   L 474.31649,643.99523   L 471.75651,653.67516   C 464.87656,654.63515 458.07661,655.67514 451.35666,656.71514   L 437.67676,612.47546   L 422.87687,651.19518   L 414.55693,621.1954   L 402.79702,657.67513   C 391.9171,655.99514 381.27718,654.39515 370.71725,652.87516   L 359.19734,616.87543   L 347.91742,649.59519   C 344.07745,649.11519 340.23748,648.5552 336.39751,647.9952   L 325.11759,590.95562   L 312.79768,644.79522   C 312.07769,644.71522 311.27769,644.63522 310.5577,644.55523   L 303.43775,610.15548   L 295.99781,642.63524   C 291.03784,641.99524 286.07788,641.35525 281.11792,640.71525   L 269.918,601.99554   L 262.47806,624.07538   L 254.55811,573.75575   L 243.5182,614.23545   L 237.11824,591.27562   L 222.87835,632.07532   L 210.47844,632.39532   C 195.51855,630.71533 181.03866,629.19534 167.03876,627.83535   L 157.75883,590.87562   L 150.15889,619.43541   L 136.31899,532.79605   L 121.9191,598.47557   L 114.63915,551.99591   L 98.719269,621.5954   C 98.079273,621.5154 97.439278,621.4354 96.719284,621.4354   L 83.67938,578.95571   L 72.799461,604.87552   L 57.919571,558.55586   L 35.759735,597.43557   L 8.4799372,476.47647   C 8.4799372,476.47647 4.9599633,488.39638 0,505.43626   L 0,666.63506   L 999.99259,666.63506   L 999.99259,576.31573   C 992.47265,550.15592 983.03272,518.95616 983.03272,518.95616   L 965.43285,597.19558   z " id="path67" transform="matrix(0.9999999999999999, 0, 0, 0.9999999999999999, 0, 0)"/></g></g></g></svg>